# xmcd CD database file
#
# Track frame offsets:
#	150
#	14969
#	27865
#	43855
#	62909
#	83635
#
# Disc length: 1302 seconds
#
# Revision: 0
# Processed by: cddbd v1.5.1PL2 Copyright (c) Steve Scherf et al.
# Submitted via: CDex 1.51
#
DISCID=4c051406
DTITLE=MIKA - The First Star
DYEAR=1900
DGENRE=Ambient
TTITLE0=Lucky Star
TTITLE1=幸せのまん中で・・・
TTITLE2=Aqua
TTITLE3=Universe
TTITLE4=I・No・Ri
TTITLE5=星が流れた夜に☆
EXTD=
EXTT0=
EXTT1=
EXTT2=
EXTT3=
EXTT4=
EXTT5=
PLAYORDER=
